<svg
  xmlns="http://www.w3.org/2000/svg"
  viewBox="0 0 512 512"
>
  <rect
    width="512"
    height="512"
    rx="108"
    fill="#000000"
  />

  <rect
    x="86"
    y="86"
    width="92"
    height="92"
    rx="18"
    fill="#ffffff"
  />

  <rect
    x="334"
    y="86"
    width="92"
    height="92"
    rx="18"
    fill="#ffffff"
  />

  <rect
    x="86"
    y="334"
    width="92"
    height="92"
    rx="18"
    fill="#ffffff"
  />

  <rect
    x="116"
    y="116"
    width="32"
    height="32"
    rx="6"
    fill="#000000"
  />

  <rect
    x="364"
    y="116"
    width="32"
    height="32"
    rx="6"
    fill="#000000"
  />

  <rect
    x="116"
    y="364"
    width="32"
    height="32"
    rx="6"
    fill="#000000"
  />

  <text
    x="256"
    y="290"
    text-anchor="middle"
    font-family="Arial, Helvetica, sans-serif"
    font-size="86"
    font-weight="700"
    fill="#ffffff"
  >
    CASA
  </text>

  <rect
    x="320"
    y="330"
    width="38"
    height="38"
    rx="8"
    fill="#ffffff"
  />

  <rect
    x="374"
    y="330"
    width="52"
    height="38"
    rx="8"
    fill="#ffffff"
  />

  <rect
    x="320"
    y="384"
    width="38"
    height="42"
    rx="8"
    fill="#ffffff"
  />

  <rect
    x="374"
    y="384"
    width="22"
    height="42"
    rx="8"
    fill="#ffffff"
  />

  <rect
    x="410"
    y="384"
    width="16"
    height="42"
    rx="8"
    fill="#ffffff"
  />
</svg>